<?xml version="1.0" encoding="UTF-8" standalone="no"?>
<!DOCTYPE svg PUBLIC "-//W3C//DTD SVG 1.1//EN" "http://www.w3.org/Graphics/SVG/1.1/DTD/svg11.dtd">
<!-- Created with Vectornator (http://vectornator.io/) -->
<svg height="100%" stroke-miterlimit="10" style="fill-rule:nonzero;clip-rule:evenodd;stroke-linecap:round;stroke-linejoin:round;" version="1.1" viewBox="86.7329 60.8767 717.656 480.439" width="100%" xml:space="preserve" xmlns="http://www.w3.org/2000/svg" xmlns:xlink="http://www.w3.org/1999/xlink">
<defs/>
<g id="Calque-2">
<g opacity="1">
<path d="M445.564 60.8767L445.564 311.08L421.004 284.821L421.004 329.412C421.004 329.412 390.622 265.623 365.301 235.772C339.979 205.921 319.719 210.008 319.719 210.008C319.719 210.008 327.839 166.885 307.333 137.176C311.748 133.067 352.116 162.404 352.116 162.404L360.622 205.797C360.622 205.797 421.735 228.381 421.004 223.718C398.809 162.643 291.338 117.528 291.338 117.528C291.338 117.528 335.584 109.785 364.098 112.612C392.611 115.439 405.394 128.835 405.394 128.835C405.394 128.835 395.075 110.403 382.287 105.238C418.163 96.1212 445.564 60.8767 445.564 60.8767Z" fill="#40a11b" fill-rule="nonzero" opacity="1" stroke="none"/>
<path d="M445.564 370.641" fill="none" opacity="1" stroke="#000000" stroke-linecap="butt" stroke-linejoin="round" stroke-width="1"/>
<path d="M445.564 370.641L445.564 424.827L397.455 388.354L445.564 434.646L445.564 465.157L389.389 417.899C389.389 417.899 397.455 375.027 377.465 289.455C397.455 341.009 445.564 370.641 445.564 370.641Z" fill="#40a11b" fill-rule="nonzero" opacity="0.996228" stroke="none"/>
<path d="M191.55 156.575C318.277 78.292 310.203 211.689 310.203 211.689C373.445 282.102 353.733 383 353.733 383C251.288 229.372 159.605 252.762 159.605 252.762L98.1716 171.67L191.55 156.575Z" fill="#0e5e13" fill-rule="nonzero" opacity="1" stroke="none"/>
<path d="M395.702 501.28L268.748 411.149L86.7329 164.605L206.322 164.605C336.883 193.435 327.315 297.674 327.315 297.674L184.228 249.125L258.928 245.968C258.928 245.968 249.208 215.818 195.193 196.612C176.686 190.031 148.106 184.946 124.609 183.894C124.959 185.297 287.335 408.694 287.335 408.694L254.018 310.147C340.744 384.404 366.019 433.901 395.702 501.28Z" fill="#40a11b" fill-rule="nonzero" opacity="1" stroke="none"/>
<path d="M197.154 203.523L216.839 241.483L252.059 242.252C247.138 232.762 222.09 212.41 197.154 203.523Z" fill="#ffffff" fill-rule="nonzero" opacity="1" stroke="none"/>
<path d="M384.195 446.052L445.564 541.315L445.564 488.223L384.195 446.052Z" fill="#a9780d" fill-rule="nonzero" opacity="1" stroke="none"/>
<path d="M360.041 169.255L364.367 201.681L397.908 212.936C396.826 204.829 368.426 172.069 360.041 169.255Z" fill="#ffffff" fill-rule="nonzero" opacity="1" stroke="none"/>
<path d="M360.041 169.255" fill="#d9d9d9" fill-rule="nonzero" opacity="1" stroke="none"/>
<path d="M197.116 204.214" fill="none" opacity="1" stroke="#000000" stroke-linecap="butt" stroke-linejoin="round" stroke-width="1"/>
</g>
<g opacity="1">
<path d="M445.558 60.8778L445.558 311.081L470.118 284.822L470.118 329.413C470.118 329.413 500.5 265.624 525.821 235.773C551.142 205.922 571.403 210.009 571.403 210.009C571.403 210.009 563.282 166.886 583.789 137.178C579.373 133.068 539.006 162.405 539.006 162.405L530.5 205.798C530.5 205.798 469.387 228.382 470.118 223.719C492.313 162.644 599.784 117.529 599.784 117.529C599.784 117.529 555.538 109.786 527.024 112.613C498.51 115.44 485.728 128.836 485.728 128.836C485.728 128.836 496.047 110.404 508.834 105.239C472.958 96.1223 445.558 60.8778 445.558 60.8778Z" fill="#40a11b" fill-rule="nonzero" opacity="1" stroke="none"/>
<path d="M445.558 370.642" fill="none" opacity="1" stroke="#000000" stroke-linecap="butt" stroke-linejoin="round" stroke-width="1"/>
<path d="M445.558 370.642L445.558 424.828L493.666 388.355L445.558 434.647L445.558 465.159L501.733 417.9C501.733 417.9 493.666 375.028 513.656 289.457C493.666 341.01 445.558 370.642 445.558 370.642Z" fill="#40a11b" fill-rule="nonzero" opacity="0.996228" stroke="none"/>
<path d="M699.572 156.576C572.845 78.2931 580.919 211.69 580.919 211.69C517.677 282.103 537.389 383.001 537.389 383.001C639.833 229.373 731.517 252.763 731.517 252.763L792.95 171.671L699.572 156.576Z" fill="#0e5e13" fill-rule="nonzero" opacity="1" stroke="none"/>
<path d="M495.42 501.281L622.374 411.15L804.389 164.606L684.799 164.606C554.239 193.436 563.807 297.675 563.807 297.675L706.894 249.126L632.194 245.969C632.194 245.969 641.914 215.819 695.929 196.613C714.435 190.032 743.016 184.947 766.513 183.895C766.162 185.298 603.787 408.695 603.787 408.695L637.104 310.148C550.378 384.405 525.102 433.902 495.42 501.281Z" fill="#40a11b" fill-rule="nonzero" opacity="1" stroke="none"/>
<path d="M693.968 203.524L674.283 241.484L639.062 242.253C643.984 232.763 669.032 212.411 693.968 203.524Z" fill="#ffffff" fill-rule="nonzero" opacity="1" stroke="none"/>
<path d="M506.927 446.053L445.558 541.316L445.558 488.224L506.927 446.053Z" fill="#a9780d" fill-rule="nonzero" opacity="1" stroke="none"/>
<path d="M531.081 169.256L526.754 201.682L493.214 212.937C494.296 204.83 522.696 172.07 531.081 169.256Z" fill="#ffffff" fill-rule="nonzero" opacity="0.988745" stroke="none"/>
<path d="M531.081 169.256" fill="#d9d9d9" fill-rule="nonzero" opacity="1" stroke="none"/>
<path d="M694.006 204.215" fill="none" opacity="1" stroke="#000000" stroke-linecap="butt" stroke-linejoin="round" stroke-width="1"/>
</g>
<path d="M445.551 60.9136L445.869 61.9615L453.09 277.031L445.572 310.892L433.187 248.624L445.551 60.9136Z" fill="#40a11b" fill-rule="nonzero" opacity="1" stroke="none"/>
<path d="M439.927 370.29L453.379 371.166L450.549 418.018L445.564 424.79L432.688 395.743L439.927 370.29Z" fill="#40a11b" fill-rule="nonzero" opacity="1" stroke="none"/>
<path d="M441.745 434.466L447.289 434.823L445.512 465.146L441.745 434.466Z" fill="#40a11b" fill-rule="nonzero" opacity="1" stroke="none"/>
<path d="M440.12 488.106L453.765 488.671L445.56 541.279" fill="#a9780d" fill-rule="nonzero" opacity="1" stroke="none"/>
</g>
</svg>
